<svg width="454" height="214" viewBox="0 0 454 214" fill="none" xmlns="http://www.w3.org/2000/svg">
<mask id="path-1-inside-1_2527_101" fill="white">
<path d="M0 44.2281V0H131.351V44.2281H96.2351V35.1158H87.1228V120.683H96.2351V155.576H34.8936V120.683H44.2281V96.3987V35.1158H34.8936V44.2281H0Z"/>
<path d="M144.566 155.576V120.683H153.901V35.1158H144.566V0H194.351L230.578 60.2303L266.583 0H316.589V35.1158H307.255V120.683H316.589V155.576H255.248V120.683H264.36V80.233L230.578 136.463L196.573 80.233V120.683H205.908V155.576H144.566Z"/>
<path d="M335.762 130.684V100.902H378.434V115.571L383.768 120.683H405.994L411.105 115.793V100.458L406.216 95.7906H360.654L335.762 70.8984V24.8922L360.654 0H429.108L439.445 10.3374L454 24.8922V55.563H411.105V40.0054L406.216 35.1158H383.102L378.434 40.0054V55.7852L383.324 60.6748H429.108L454 85.567V130.684L429.108 155.576H360.654L340.701 135.623L335.762 130.684Z"/>
</mask>
<path d="M0 44.2281V0H131.351V44.2281H96.2351V35.1158H87.1228V120.683H96.2351V155.576H34.8936V120.683H44.2281V96.3987V35.1158H34.8936V44.2281H0Z" fill="black"/>
<path d="M144.566 155.576V120.683H153.901V35.1158H144.566V0H194.351L230.578 60.2303L266.583 0H316.589V35.1158H307.255V120.683H316.589V155.576H255.248V120.683H264.36V80.233L230.578 136.463L196.573 80.233V120.683H205.908V155.576H144.566Z" fill="black"/>
<path d="M335.762 130.684V100.902H378.434V115.571L383.768 120.683H405.994L411.105 115.793V100.458L406.216 95.7906H360.654L335.762 70.8984V24.8922L360.654 0H429.108L439.445 10.3374L454 24.8922V55.563H411.105V40.0054L406.216 35.1158H383.102L378.434 40.0054V55.7852L383.324 60.6748H429.108L454 85.567V130.684L429.108 155.576H360.654L340.701 135.623L335.762 130.684Z" fill="black"/>
<path d="M38.6718 124.239V122.244H36.6774V124.239H38.6718ZM38.6718 151.798H36.6774V153.793H38.6718V151.798ZM92.6791 151.798V153.793H94.6735V151.798H92.6791ZM92.6791 124.239H94.6735V122.244H92.6791V124.239ZM87.7895 129.128H89.784V127.134H87.7895V129.128ZM87.7895 146.909V148.903H89.784V146.909H87.7895ZM43.5614 146.909H41.5669V148.903H43.5614V146.909ZM43.5614 129.128V127.134H41.5669V129.128H43.5614ZM268.138 65.7866H270.133V58.2929L266.408 64.7952L268.138 65.7866ZM268.138 124.239V126.233H270.133V124.239H268.138ZM258.804 124.239V122.244H256.809V124.239H258.804ZM258.804 151.798H256.809V153.793H258.804V151.798ZM312.811 151.798V153.793H314.805V151.798H312.811ZM312.811 124.239H314.805V122.244H312.811V124.239ZM303.476 124.239H301.482V126.233H303.476V124.239ZM303.476 31.3375V29.3431H301.482V31.3375H303.476ZM312.811 31.3375V33.332H314.805V31.3375H312.811ZM312.811 3.77829H314.805V1.78383H312.811V3.77829ZM267.472 3.77829V1.78383H266.34L265.759 2.75577L267.472 3.77829ZM273.25 8.66783V6.67338H272.121L271.54 7.64169L273.25 8.66783ZM308.144 8.66783H310.138V6.67338H308.144V8.66783ZM308.144 26.448V28.4424H310.138V26.448H308.144ZM298.587 26.448V24.4535H296.592V26.448H298.587ZM298.587 129.128H296.592V131.123H298.587V129.128ZM308.144 129.128H310.138V127.134H308.144V129.128ZM308.144 146.909V148.903H310.138V146.909H308.144ZM263.693 146.909H261.699V148.903H263.693V146.909ZM263.693 129.128V127.134H261.699V129.128H263.693ZM273.028 129.128V131.123H275.022V129.128H273.028ZM273.028 50.8957H275.022V43.6822L271.317 49.8711L273.028 50.8957ZM427.997 151.798V153.793H428.817L429.4 153.215L427.997 151.798ZM450.222 129.795L451.625 131.213L452.216 130.627V129.795H450.222ZM450.222 86.2338H452.216V85.4017L451.625 84.8163L450.222 86.2338ZM450.222 51.7847V53.7792H452.216V51.7847H450.222ZM414.884 99.5689H416.878V98.7258L416.273 98.1383L414.884 99.5689ZM414.884 116.46L416.274 117.89L416.878 117.303V116.46H414.884ZM406.883 124.239V126.233H407.692L408.273 125.669L406.883 124.239ZM382.657 124.239L381.247 125.649L381.831 126.233H382.657V124.239ZM374.878 116.46H372.884V117.286L373.468 117.87L374.878 116.46ZM369.989 119.572H367.994V120.398L368.578 120.982L369.989 119.572ZM379.546 129.128L378.135 130.539L378.719 131.123H379.546V129.128ZM410.216 129.128V131.123H411.056L411.643 130.522L410.216 129.128ZM419.773 119.349L421.2 120.743L421.768 120.162V119.349H419.773ZM419.773 97.1241H421.768V96.3111L421.199 95.7298L419.773 97.1241ZM445.554 47.1174V49.1119H447.549V47.1174H445.554ZM419.773 47.1174H417.779V49.1119H419.773V47.1174ZM445.554 90.012H447.549V89.1922L446.972 88.6093L445.554 90.012ZM445.554 126.461L446.972 127.864L447.549 127.281V126.461H445.554ZM425.329 146.909V148.903H426.162L426.747 148.311L425.329 146.909ZM48.0064 124.239V122.244H38.6718V124.239V126.233H48.0064V124.239ZM38.6718 124.239H36.6774V151.798H38.6718H40.6663V124.239H38.6718ZM38.6718 151.798V153.793H92.6791V151.798V149.804H38.6718V151.798ZM92.6791 151.798H94.6735V124.239H92.6791H90.6846V151.798H92.6791ZM92.6791 124.239V122.244H83.3445V124.239V126.233H92.6791V124.239ZM100.236 40.6721V42.6666H127.573V40.6721V38.6777H100.236V40.6721ZM122.905 35.7826V33.7881H104.903V35.7826V37.777H122.905V35.7826ZM78.6772 129.128V131.123H87.7895V129.128V127.134H78.6772V129.128ZM87.7895 129.128H85.7951V146.909H87.7895H89.784V129.128H87.7895ZM87.7895 146.909V144.914H43.5614V146.909V148.903H87.7895V146.909ZM43.5614 146.909H45.5558V129.128H43.5614H41.5669V146.909H43.5614ZM43.5614 129.128V131.123H52.896V129.128V127.134H43.5614V129.128ZM230.578 131.351L232.308 132.342L269.869 66.778L268.138 65.7866L266.408 64.7952L228.847 130.359L230.578 131.351ZM268.138 65.7866H266.144V124.239H268.138H270.133V65.7866H268.138ZM268.138 124.239V122.244H258.804V124.239V126.233H268.138V124.239ZM258.804 124.239H256.809V151.798H258.804H260.798V124.239H258.804ZM258.804 151.798V153.793H312.811V151.798V149.804H258.804V151.798ZM312.811 151.798H314.805V124.239H312.811H310.817V151.798H312.811ZM312.811 124.239V122.244H303.476V124.239V126.233H312.811V124.239ZM303.476 124.239H305.471V31.3375H303.476H301.482V124.239H303.476ZM303.476 31.3375V33.332H312.811V31.3375V29.3431H303.476V31.3375ZM312.811 31.3375H314.805V3.77829H312.811H310.817V31.3375H312.811ZM312.811 3.77829V1.78383H267.472V3.77829V5.77274H312.811V3.77829ZM267.472 3.77829L265.759 2.75577L228.865 64.5418L230.578 65.5643L232.29 66.5868L269.184 4.8008L267.472 3.77829ZM230.578 79.7885L232.288 80.8146L274.96 9.69397L273.25 8.66783L271.54 7.64169L228.868 78.7623L230.578 79.7885ZM273.25 8.66783V10.6623H308.144V8.66783V6.67338H273.25V8.66783ZM308.144 8.66783H306.149V26.448H308.144H310.138V8.66783H308.144ZM308.144 26.448V24.4535H298.587V26.448V28.4424H308.144V26.448ZM298.587 26.448H296.592V129.128H298.587H300.581V26.448H298.587ZM298.587 129.128V131.123H308.144V129.128V127.134H298.587V129.128ZM308.144 129.128H306.149V146.909H308.144H310.138V129.128H308.144ZM308.144 146.909V144.914H263.693V146.909V148.903H308.144V146.909ZM263.693 146.909H265.688V129.128H263.693H261.699V146.909H263.693ZM263.693 129.128V131.123H273.028V129.128V127.134H263.693V129.128ZM273.028 129.128H275.022V50.8957H273.028H271.033V129.128H273.028ZM273.028 50.8957L271.317 49.8711L228.867 120.77L230.578 121.794L232.289 122.819L274.739 51.9203L273.028 50.8957ZM361.765 151.798V153.793H427.997V151.798V149.804H361.765V151.798ZM427.997 151.798L429.4 153.215L451.625 131.213L450.222 129.795L448.819 128.378L426.593 150.381L427.997 151.798ZM450.222 129.795H452.216V86.2338H450.222H448.227V129.795H450.222ZM450.222 86.2338L451.625 84.8163L429.622 63.0356L428.219 64.4531L426.816 65.8705L448.819 87.6512L450.222 86.2338ZM414.884 51.7847V53.7792H450.222V51.7847V49.7903H414.884V51.7847ZM450.222 51.7847H452.216V25.7812H450.222H448.227V51.7847H450.222ZM407.105 92.0123L405.715 93.4429L413.494 100.999L414.884 99.5689L416.273 98.1383L408.495 90.5817L407.105 92.0123ZM414.884 99.5689H412.889V116.46H414.884H416.878V99.5689H414.884ZM414.884 116.46L413.493 115.03L405.492 122.809L406.883 124.239L408.273 125.669L416.274 117.89L414.884 116.46ZM406.883 124.239V122.244H382.657V124.239V126.233H406.883V124.239ZM382.657 124.239L384.067 122.829L376.289 115.05L374.878 116.46L373.468 117.87L381.247 125.649L382.657 124.239ZM374.878 116.46H376.873V104.681H374.878H372.884V116.46H374.878ZM369.989 109.348H367.994V119.572H369.989H371.983V109.348H369.989ZM369.989 119.572L368.578 120.982L378.135 130.539L379.546 129.128L380.956 127.718L371.399 118.161L369.989 119.572ZM379.546 129.128V131.123H410.216V129.128V127.134H379.546V129.128ZM410.216 129.128L411.643 130.522L421.2 120.743L419.773 119.349L418.347 117.955L408.79 127.734L410.216 129.128ZM419.773 119.349H421.768V97.1241H419.773H417.779V119.349H419.773ZM419.773 97.1241L421.199 95.7298L411.42 85.7284L409.994 87.1228L408.568 88.5171L418.347 98.5185L419.773 97.1241ZM445.554 29.5595H443.56V47.1174H445.554H447.549V29.5595H445.554ZM445.554 47.1174V45.123H419.773V47.1174V49.1119H445.554V47.1174ZM419.773 47.1174H421.768V36.4493H419.773H417.779V47.1174H419.773ZM424.885 69.1204L423.467 70.5231L444.137 91.4148L445.554 90.012L446.972 88.6093L426.303 67.7176L424.885 69.1204ZM445.554 90.012H443.56V126.461H445.554H447.549V90.012H445.554ZM445.554 126.461L444.136 125.059L423.911 145.506L425.329 146.909L426.747 148.311L446.972 127.864L445.554 126.461ZM425.329 146.909V144.914H364.655V146.909V148.903H425.329V146.909ZM0 44.2281H-3.98891V48.217H0V44.2281ZM0 0V-3.98891H-3.98891V0H0ZM131.351 0H135.34V-3.98891H131.351V0ZM131.351 44.2281V48.217H135.34V44.2281H131.351ZM96.2351 44.2281H92.2462V48.217H96.2351V44.2281ZM96.2351 35.1158H100.224V31.1269H96.2351V35.1158ZM87.1228 35.1158V31.1269H83.1339V35.1158H87.1228ZM87.1228 120.683H83.1339V124.672H87.1228V120.683ZM96.2351 120.683H100.224V116.694H96.2351V120.683ZM96.2351 155.576V159.565H100.224V155.576H96.2351ZM34.8936 155.576H30.9046V159.565H34.8936V155.576ZM34.8936 120.683V116.694H30.9046V120.683H34.8936ZM44.2281 120.683V124.672H48.2171V120.683H44.2281ZM44.2281 35.1158H48.2171V31.1269H44.2281V35.1158ZM34.8936 35.1158V31.1269H30.9046V35.1158H34.8936ZM34.8936 44.2281V48.217H38.8825V44.2281H34.8936ZM144.566 155.576H140.577V159.565H144.566V155.576ZM144.566 120.683V116.694H140.577V120.683H144.566ZM153.901 120.683V124.672H157.89V120.683H153.901ZM153.901 35.1158H157.89V31.1269H153.901V35.1158ZM144.566 35.1158H140.577V39.1047H144.566V35.1158ZM144.566 0V-3.98891H140.577V0H144.566ZM194.351 0L197.769 -2.05599L196.606 -3.98891H194.351V0ZM230.578 60.2303L227.16 62.2863L230.588 67.9869L234.002 62.277L230.578 60.2303ZM266.583 0V-3.98891H264.32L263.159 -2.0467L266.583 0ZM316.589 0H320.578V-3.98891H316.589V0ZM316.589 35.1158V39.1047H320.578V35.1158H316.589ZM307.255 35.1158V31.1269H303.266V35.1158H307.255ZM307.255 120.683H303.266V124.672H307.255V120.683ZM316.589 120.683H320.578V116.694H316.589V120.683ZM316.589 155.576V159.565H320.578V155.576H316.589ZM255.248 155.576H251.259V159.565H255.248V155.576ZM255.248 120.683V116.694H251.259V120.683H255.248ZM264.36 120.683V124.672H268.349V120.683H264.36ZM264.36 80.233H268.349V65.848L260.941 78.1787L264.36 80.233ZM230.578 136.463L227.164 138.527L230.589 144.19L233.997 138.517L230.578 136.463ZM196.573 80.233L199.986 78.1688L192.584 65.9285V80.233H196.573ZM196.573 120.683H192.584V124.672H196.573V120.683ZM205.908 120.683H209.897V116.694H205.908V120.683ZM205.908 155.576V159.565H209.897V155.576H205.908ZM335.762 130.684H331.773V132.336L332.941 133.505L335.762 130.684ZM335.762 100.902V96.9135H331.773V100.902H335.762ZM378.434 100.902H382.423V96.9135H378.434V100.902ZM378.434 115.571H374.445V117.273L375.674 118.451L378.434 115.571ZM383.768 120.683L381.008 123.563L382.166 124.672H383.768V120.683ZM405.994 120.683V124.672H407.594L408.751 123.565L405.994 120.683ZM411.105 115.793L413.863 118.676L415.094 117.498V115.793H411.105ZM411.105 100.458H415.094V98.751L413.86 97.5725L411.105 100.458ZM406.216 95.7906L408.97 92.9052L407.814 91.8017H406.216V95.7906ZM360.654 95.7906L357.834 98.6112L359.002 99.7795H360.654V95.7906ZM335.762 70.8984H331.773V72.5506L332.941 73.719L335.762 70.8984ZM335.762 24.8922L332.941 22.0716L331.773 23.24V24.8922H335.762ZM360.654 0V-3.98891H359.002L357.834 -2.82059L360.654 0ZM429.108 0L431.928 -2.82059L430.76 -3.98891H429.108V0ZM454 24.8922H457.989V23.24L456.821 22.0716L454 24.8922ZM454 55.563V59.5519H457.989V55.563H454ZM411.105 55.563H407.116V59.5519H411.105V55.563ZM411.105 40.0054H415.094V38.3531L413.926 37.1848L411.105 40.0054ZM406.216 35.1158L409.036 32.2952L407.868 31.1269H406.216V35.1158ZM383.102 35.1158V31.1269H381.395L380.216 32.3616L383.102 35.1158ZM378.434 40.0054L375.549 37.2511L374.445 38.4072V40.0054H378.434ZM378.434 55.7852H374.445V57.4375L375.614 58.6058L378.434 55.7852ZM383.324 60.6748L380.503 63.4954L381.672 64.6637H383.324V60.6748ZM429.108 60.6748L431.928 57.8542L430.76 56.6859H429.108V60.6748ZM454 85.567H457.989V83.9147L456.821 82.7464L454 85.567ZM454 130.684L456.821 133.505L457.989 132.336V130.684H454ZM429.108 155.576V159.565H430.76L431.928 158.397L429.108 155.576ZM360.654 155.576L357.834 158.397L359.002 159.565H360.654V155.576ZM340.701 135.623L337.88 138.444L340.701 135.623ZM439.445 10.3374L436.625 13.158V13.158L439.445 10.3374ZM0 44.2281H3.98891V0H0H-3.98891V44.2281H0ZM0 0V3.98891H131.351V0V-3.98891H0V0ZM131.351 0H127.362V44.2281H131.351H135.34V0H131.351ZM131.351 44.2281V40.2392H96.2351V44.2281V48.217H131.351V44.2281ZM96.2351 44.2281H100.224V35.1158H96.2351H92.2462V44.2281H96.2351ZM96.2351 35.1158V31.1269H87.1228V35.1158V39.1047H96.2351V35.1158ZM87.1228 35.1158H83.1339V120.683H87.1228H91.1117V35.1158H87.1228ZM87.1228 120.683V124.672H96.2351V120.683V116.694H87.1228V120.683ZM96.2351 120.683H92.2462V155.576H96.2351H100.224V120.683H96.2351ZM96.2351 155.576V151.587H34.8936V155.576V159.565H96.2351V155.576ZM34.8936 155.576H38.8825V120.683H34.8936H30.9046V155.576H34.8936ZM34.8936 120.683V124.672H44.2281V120.683V116.694H34.8936V120.683ZM44.2281 35.1158V31.1269H34.8936V35.1158V39.1047H44.2281V35.1158ZM34.8936 35.1158H30.9046V44.2281H34.8936H38.8825V35.1158H34.8936ZM34.8936 44.2281V40.2392H0V44.2281V48.217H34.8936V44.2281ZM144.566 155.576H148.555V120.683H144.566H140.577V155.576H144.566ZM144.566 120.683V124.672H153.901V120.683V116.694H144.566V120.683ZM153.901 120.683H157.89V35.1158H153.901H149.912V120.683H153.901ZM153.901 35.1158V31.1269H144.566V35.1158V39.1047H153.901V35.1158ZM144.566 35.1158H148.555V0H144.566H140.577V35.1158H144.566ZM144.566 0V3.98891H194.351V0V-3.98891H144.566V0ZM194.351 0L190.932 2.05599L227.16 62.2863L230.578 60.2303L233.996 58.1743L197.769 -2.05599L194.351 0ZM230.578 60.2303L234.002 62.277L270.006 2.0467L266.583 0L263.159 -2.0467L227.154 58.1836L230.578 60.2303ZM266.583 0V3.98891H316.589V0V-3.98891H266.583V0ZM316.589 0H312.6V35.1158H316.589H320.578V0H316.589ZM316.589 35.1158V31.1269H307.255V35.1158V39.1047H316.589V35.1158ZM307.255 35.1158H303.266V120.683H307.255H311.244V35.1158H307.255ZM307.255 120.683V124.672H316.589V120.683V116.694H307.255V120.683ZM316.589 120.683H312.6V155.576H316.589H320.578V120.683H316.589ZM316.589 155.576V151.587H255.248V155.576V159.565H316.589V155.576ZM255.248 155.576H259.237V120.683H255.248H251.259V155.576H255.248ZM255.248 120.683V124.672H264.36V120.683V116.694H255.248V120.683ZM264.36 120.683H268.349V80.233H264.36H260.371V120.683H264.36ZM264.36 80.233L260.941 78.1787L227.158 134.408L230.578 136.463L233.997 138.517L267.779 82.2872L264.36 80.233ZM230.578 136.463L233.991 134.399L199.986 78.1688L196.573 80.233L193.16 82.2971L227.164 138.527L230.578 136.463ZM196.573 80.233H192.584V120.683H196.573H200.562V80.233H196.573ZM196.573 120.683V124.672H205.908V120.683V116.694H196.573V120.683ZM205.908 120.683H201.919V155.576H205.908H209.897V120.683H205.908ZM205.908 155.576V151.587H144.566V155.576V159.565H205.908V155.576ZM335.762 130.684H339.751V100.902H335.762H331.773V130.684H335.762ZM335.762 100.902V104.891H378.434V100.902V96.9135H335.762V100.902ZM378.434 100.902H374.445V115.571H378.434H382.423V100.902H378.434ZM378.434 115.571L375.674 118.451L381.008 123.563L383.768 120.683L386.528 117.803L381.194 112.691L378.434 115.571ZM383.768 120.683V124.672H405.994V120.683V116.694H383.768V120.683ZM405.994 120.683L408.751 123.565L413.863 118.676L411.105 115.793L408.348 112.911L403.236 117.8L405.994 120.683ZM411.105 115.793H415.094V100.458H411.105H407.116V115.793H411.105ZM411.105 100.458L413.86 97.5725L408.97 92.9052L406.216 95.7906L403.462 98.676L408.351 103.343L411.105 100.458ZM406.216 95.7906V91.8017H360.654V95.7906V99.7795H406.216V95.7906ZM360.654 95.7906L363.475 92.97L338.583 68.0778L335.762 70.8984L332.941 73.719L357.834 98.6112L360.654 95.7906ZM335.762 70.8984H339.751V24.8922H335.762H331.773V70.8984H335.762ZM335.762 24.8922L338.583 27.7128L363.475 2.82059L360.654 0L357.834 -2.82059L332.941 22.0716L335.762 24.8922ZM360.654 0V3.98891H429.108V0V-3.98891H360.654V0ZM454 24.8922H450.011V55.563H454H457.989V24.8922H454ZM454 55.563V51.5741H411.105V55.563V59.5519H454V55.563ZM411.105 55.563H415.094V40.0054H411.105H407.116V55.563H411.105ZM411.105 40.0054L413.926 37.1848L409.036 32.2952L406.216 35.1158L403.395 37.9364L408.285 42.8259L411.105 40.0054ZM406.216 35.1158V31.1269H383.102V35.1158V39.1047H406.216V35.1158ZM383.102 35.1158L380.216 32.3616L375.549 37.2511L378.434 40.0054L381.32 42.7596L385.987 37.87L383.102 35.1158ZM378.434 40.0054H374.445V55.7852H378.434H382.423V40.0054H378.434ZM378.434 55.7852L375.614 58.6058L380.503 63.4954L383.324 60.6748L386.144 57.8542L381.255 52.9647L378.434 55.7852ZM383.324 60.6748V64.6637H429.108V60.6748V56.6859H383.324V60.6748ZM429.108 60.6748L426.287 63.4954L451.179 88.3876L454 85.567L456.821 82.7464L431.928 57.8542L429.108 60.6748ZM454 85.567H450.011V130.684H454H457.989V85.567H454ZM454 130.684L451.179 127.864L426.287 152.756L429.108 155.576L431.928 158.397L456.821 133.505L454 130.684ZM429.108 155.576V151.587H360.654V155.576V159.565H429.108V155.576ZM44.2281 120.683H48.2171V96.3987H44.2281H40.2392V120.683H44.2281ZM44.2281 96.3987H48.2171V35.1158H44.2281H40.2392V96.3987H44.2281ZM360.654 155.576L363.475 152.756L343.521 132.802L340.701 135.623L337.88 138.444L357.834 158.397L360.654 155.576ZM340.701 135.623L343.521 132.802L338.583 127.864L335.762 130.684L332.941 133.505L337.88 138.444L340.701 135.623ZM429.108 0L426.287 2.82059L436.625 13.158L439.445 10.3374L442.266 7.51685L431.928 -2.82059L429.108 0ZM439.445 10.3374L436.625 13.158L451.179 27.7128L454 24.8922L456.821 22.0716L442.266 7.51685L439.445 10.3374Z" fill="#FA4B0F" mask="url(#path-1-inside-1_2527_101)"/>
<path d="M86.8015 120.683L87.1678 48.5318L83.0232 53.1177V124.239H92.3578V151.798H38.3505V124.239H47.6851V92.2182L43.9068 96.3987V120.683H34.5723V155.576H95.9138V120.683H86.8015Z" fill="#FA4B0F"/>
<path d="M47.6851 124.239H38.3505V151.798H92.3578V124.239H83.0232V53.1177L47.6851 92.2182V124.239Z" fill="#FA4B0F"/>
<path d="M122.584 35.7826V9.34477L104.582 29.2639V35.7826H122.584Z" fill="#FA4B0F"/>
<path d="M99.9143 40.6721H127.251V4.18056L122.584 9.34477V35.7826H104.582V29.2639L99.9143 34.4281V40.6721Z" fill="#FA4B0F"/>
<path d="M131.03 44.2281V0L127.251 4.18056V40.6721H99.9143V34.4281L95.9138 38.8546V44.2281H131.03Z" fill="#FA4B0F"/>
<path d="M272.929 8.66783L230.256 79.7885V121.794L272.707 50.8957V129.128H263.372V146.909H307.822V129.128H298.266V26.448H307.822V8.66783H272.929Z" fill="#FA4B0F"/>
<path d="M230.256 131.351L267.817 65.7866V124.239H258.482V151.798H312.49V124.239H303.155V31.3375H312.49V3.77829H267.15L230.256 65.5643V79.7885L272.929 8.66783H307.822V26.448H298.266V129.128H307.822V146.909H263.372V129.128H272.707V50.8957L230.256 121.794V131.351Z" fill="#FA4B0F"/>
<path d="M266.261 0L230.256 60.2303V65.5643L267.15 3.77829H312.49V31.3375H303.155V124.239H312.49V151.798H258.482V124.239H267.817V65.7866L230.256 131.351V136.463L264.039 80.233V120.683H254.926V155.576H316.268V120.683H306.933V35.1158H316.268V0H266.261Z" fill="#FA4B0F"/>
<path d="M453.679 85.567L428.786 60.6748H399.45L396.472 64.4531H427.897L449.9 86.2338V129.795L427.675 151.798H361.444L342.451 132.995L340.379 135.623L360.333 155.576H428.786L453.679 130.684V85.567Z" fill="#FA4B0F"/>
<path d="M378.113 100.902H367.745L364.767 104.681H374.557V116.46L382.336 124.239H406.561L414.562 116.46V99.5689L406.784 92.0123H374.751L371.774 95.7906H405.895L410.784 100.458V115.793L405.672 120.683H383.447L378.113 115.571V100.902Z" fill="#FA4B0F"/>
<path d="M406.784 92.0123L414.562 99.5689V116.46L406.561 124.239H382.336L374.557 116.46V104.681H364.767L361.088 109.348H369.667V119.572L379.224 129.128H409.895L419.452 119.349V97.1241L409.673 87.1228H378.605L374.751 92.0123H406.784Z" fill="#FA4B0F"/>
<path d="M361.444 151.798H427.675L449.9 129.795V86.2338L427.897 64.4531H396.472L392.794 69.1204H424.564L445.233 90.012V126.461L425.008 146.909H364.333L346.052 128.426L342.451 132.995L361.444 151.798Z" fill="#FA4B0F"/>
<path d="M369.667 119.572V109.348H361.088L346.052 128.426L364.333 146.909H425.008L445.233 126.461V90.012L424.564 69.1204H392.794L378.605 87.1228H409.673L419.452 97.1241V119.349L409.895 129.128H379.224L369.667 119.572Z" fill="#FA4B0F"/>
<path d="M453.679 55.563V24.8922L439.124 10.3374L437.067 12.9475L449.9 25.7812V51.7847H414.562V41.5008L410.784 46.2947V55.563H453.679Z" fill="#FA4B0F"/>
<path d="M414.562 51.7847H449.9V25.7812L437.067 12.9475L433.4 17.5994L445.233 29.5595V47.1174H419.452V36.4493L418.949 35.935L414.562 41.5008V51.7847Z" fill="#FA4B0F"/>
<path d="M445.233 47.1174V29.5595L433.4 17.5994L418.949 35.935L419.452 36.4493V47.1174H445.233Z" fill="#FA4B0F"/>
<path d="M66.2112 204.539H61.705V185.317L58.8532 195.527H55.3701L52.5619 185.317V204.539H48.0556V176.13H53.4109L57.1117 188.974L60.8124 176.13H66.2112V204.539ZM92.5843 194.416C92.5843 195.998 92.3303 197.435 91.8223 198.727C91.3289 200.018 90.6105 201.136 89.6672 202.079C88.7383 203.008 87.6209 203.734 86.3147 204.256C85.0085 204.779 83.55 205.04 81.9391 205.04C80.3572 205.04 78.9131 204.779 77.607 204.256C76.3008 203.734 75.1761 203.008 74.2328 202.079C73.3039 201.136 72.5855 200.018 72.0776 198.727C71.5842 197.435 71.3374 195.998 71.3374 194.416C71.3374 192.878 71.5842 191.456 72.0776 190.15C72.5855 188.829 73.3039 187.697 74.2328 186.754C75.1761 185.796 76.3008 185.063 77.607 184.555C78.9131 184.032 80.3572 183.771 81.9391 183.771C83.55 183.771 85.0085 184.032 86.3147 184.555C87.6209 185.063 88.7383 185.796 89.6672 186.754C90.6105 187.697 91.3289 188.829 91.8223 190.15C92.3303 191.456 92.5843 192.878 92.5843 194.416ZM88.0998 194.416C88.0998 193.502 87.9547 192.639 87.6644 191.826C87.3887 190.999 86.9823 190.295 86.4453 189.714C85.9083 189.134 85.2553 188.677 84.4861 188.343C83.7314 187.994 82.8824 187.82 81.9391 187.82C80.9812 187.82 80.125 187.994 79.3703 188.343C78.6156 188.677 77.9771 189.134 77.4546 189.714C76.9321 190.295 76.5258 190.999 76.2355 191.826C75.9598 192.639 75.8219 193.502 75.8219 194.416C75.8219 195.374 75.9598 196.245 76.2355 197.029C76.5258 197.812 76.9321 198.502 77.4546 199.097C77.9771 199.692 78.6156 200.156 79.3703 200.49C80.125 200.809 80.9812 200.969 81.9391 200.969C82.8824 200.969 83.7314 200.809 84.4861 200.49C85.2553 200.156 85.9083 199.692 86.4453 199.097C86.9823 198.502 87.3887 197.812 87.6644 197.029C87.9547 196.245 88.0998 195.374 88.0998 194.416ZM97.6234 176.13H102.13V186.079C102.986 185.31 103.849 184.736 104.72 184.359C105.605 183.967 106.614 183.771 107.746 183.771C109.052 183.771 110.264 184.04 111.382 184.577C112.499 185.099 113.457 185.832 114.255 186.775C115.053 187.704 115.685 188.829 116.149 190.15C116.613 191.456 116.846 192.878 116.846 194.416C116.846 195.969 116.613 197.399 116.149 198.705C115.685 200.011 115.053 201.136 114.255 202.079C113.457 203.008 112.499 203.734 111.382 204.256C110.264 204.779 109.052 205.04 107.746 205.04C106.614 205.04 105.605 204.837 104.72 204.43C103.849 204.024 102.986 203.436 102.13 202.667V204.539H97.6234V176.13ZM102.13 199.14C102.667 199.735 103.349 200.192 104.176 200.512C105.018 200.817 105.823 200.969 106.592 200.969C108.29 200.969 109.669 200.367 110.729 199.162C111.802 197.957 112.339 196.376 112.339 194.416C112.339 192.457 111.802 190.868 110.729 189.649C109.669 188.43 108.29 187.82 106.592 187.82C105.823 187.82 105.018 187.98 104.176 188.299C103.349 188.604 102.667 189.054 102.13 189.649V199.14ZM134.228 181.616H128.742V176.13H134.228V181.616ZM138.364 204.539H124.737V200.49H129.221V188.321H124.737V184.25H133.727V200.49H138.364V204.539ZM163.192 204.539H149.564V200.49H154.005V180.201H149.564V176.13H158.511V200.49H163.192V204.539ZM175.045 196.114C175.262 197.508 175.923 198.669 177.026 199.597C178.143 200.512 179.638 200.969 181.51 200.969C182.976 200.969 184.246 200.744 185.32 200.294C186.408 199.83 187.344 199.22 188.128 198.465L190.435 201.644C189.129 202.95 187.743 203.842 186.277 204.321C184.826 204.8 183.237 205.04 181.51 205.04C179.943 205.04 178.484 204.779 177.134 204.256C175.785 203.734 174.616 203.008 173.63 202.079C172.643 201.136 171.866 200.018 171.3 198.727C170.749 197.435 170.473 195.998 170.473 194.416C170.473 192.878 170.727 191.463 171.235 190.171C171.757 188.865 172.483 187.74 173.412 186.797C174.355 185.839 175.48 185.099 176.786 184.577C178.092 184.04 179.536 183.771 181.118 183.771C182.758 183.771 184.246 184.054 185.581 184.62C186.916 185.172 188.055 185.977 188.999 187.037C189.956 188.096 190.704 189.395 191.241 190.933C191.778 192.457 192.046 194.184 192.046 196.114H175.045ZM186.952 192.152C186.72 190.846 186.045 189.801 184.928 189.018C183.81 188.219 182.54 187.82 181.118 187.82C179.696 187.82 178.419 188.219 177.287 189.018C176.155 189.801 175.473 190.846 175.24 192.152H186.952ZM241.701 190.324C241.701 192.225 241.498 194.039 241.092 195.766C240.7 197.479 240.061 198.988 239.176 200.294C238.305 201.586 237.173 202.616 235.78 203.385C234.401 204.154 232.732 204.539 230.773 204.539H221.543V176.13H230.773C232.703 176.13 234.358 176.522 235.736 177.306C237.13 178.075 238.262 179.105 239.132 180.397C240.018 181.689 240.664 183.191 241.07 184.903C241.491 186.616 241.701 188.423 241.701 190.324ZM237.195 190.324C237.195 187.044 236.636 184.54 235.519 182.813C234.401 181.072 232.819 180.201 230.773 180.201H226.049V200.49H230.773C232.819 200.49 234.401 199.605 235.519 197.834C236.636 196.064 237.195 193.56 237.195 190.324ZM249.396 196.114C249.614 197.508 250.274 198.669 251.377 199.597C252.495 200.512 253.99 200.969 255.862 200.969C257.327 200.969 258.597 200.744 259.671 200.294C260.76 199.83 261.696 199.22 262.48 198.465L264.787 201.644C263.481 202.95 262.095 203.842 260.629 204.321C259.178 204.8 257.589 205.04 255.862 205.04C254.294 205.04 252.836 204.779 251.486 204.256C250.136 203.734 248.968 203.008 247.981 202.079C246.994 201.136 246.218 200.018 245.652 198.727C245.1 197.435 244.825 195.998 244.825 194.416C244.825 192.878 245.079 191.463 245.587 190.171C246.109 188.865 246.835 187.74 247.763 186.797C248.707 185.839 249.832 185.099 251.138 184.577C252.444 184.04 253.888 183.771 255.47 183.771C257.11 183.771 258.597 184.054 259.933 184.62C261.268 185.172 262.407 185.977 263.35 187.037C264.308 188.096 265.056 189.395 265.593 190.933C266.13 192.457 266.398 194.184 266.398 196.114H249.396ZM261.304 192.152C261.072 190.846 260.397 189.801 259.279 189.018C258.162 188.219 256.892 187.82 255.47 187.82C254.048 187.82 252.77 188.219 251.638 189.018C250.506 189.801 249.824 190.846 249.592 192.152H261.304ZM290.551 198.074C290.318 200.207 289.477 201.905 288.025 203.168C286.589 204.416 284.789 205.04 282.627 205.04C281.437 205.04 280.348 204.844 279.361 204.452C278.374 204.06 277.533 203.516 276.836 202.819C276.139 202.123 275.595 201.288 275.203 200.316C274.826 199.329 274.637 198.255 274.637 197.094V188.321H270.044V184.25H274.637V176.13H279.143V184.25H287.655V188.321H279.143V197.094C279.143 198.4 279.463 199.372 280.101 200.011C280.74 200.65 281.582 200.969 282.627 200.969C283.904 200.969 284.854 200.599 285.478 199.859C286.102 199.119 286.472 198.226 286.589 197.181L290.551 198.074ZM294.741 198.705C294.741 197.515 295.06 196.477 295.699 195.592C296.337 194.692 297.172 193.945 298.202 193.35C299.247 192.755 300.437 192.312 301.772 192.022C303.122 191.717 304.493 191.565 305.887 191.565C306.656 191.565 307.316 191.579 307.868 191.608C308.419 191.637 308.978 191.681 309.544 191.739V190.933C309.544 189.874 309.13 189.083 308.303 188.56C307.49 188.038 306.416 187.777 305.081 187.777C303.862 187.777 302.621 187.951 301.359 188.299C300.096 188.633 298.899 189.126 297.767 189.779L295.938 186.253C297.273 185.484 298.703 184.881 300.227 184.446C301.765 183.996 303.383 183.771 305.081 183.771C306.184 183.771 307.265 183.895 308.325 184.141C309.399 184.388 310.357 184.794 311.198 185.36C312.055 185.926 312.737 186.666 313.245 187.581C313.753 188.481 314.007 189.598 314.007 190.933V204.539H309.544V201.557C308.833 202.66 307.781 203.516 306.387 204.125C305.009 204.735 303.521 205.04 301.925 205.04C300.938 205.04 300.002 204.902 299.116 204.626C298.246 204.365 297.491 203.966 296.852 203.429C296.214 202.892 295.699 202.232 295.307 201.448C294.929 200.65 294.741 199.735 294.741 198.705ZM303.078 201.012C303.964 201.012 304.791 200.904 305.56 200.686C306.344 200.454 307.033 200.142 307.628 199.75C308.223 199.343 308.688 198.857 309.021 198.291C309.37 197.725 309.544 197.101 309.544 196.419V195.657C308.833 195.541 308.165 195.476 307.541 195.461C306.917 195.447 306.366 195.44 305.887 195.44C303.681 195.44 302.012 195.73 300.88 196.31C299.762 196.891 299.203 197.609 299.203 198.465C299.203 200.163 300.495 201.012 303.078 201.012ZM332.499 181.616H327.013V176.13H332.499V181.616ZM336.635 204.539H323.008V200.49H327.492V188.321H323.008V184.25H331.998V200.49H336.635V204.539ZM361.463 204.539H347.835V200.49H352.276V180.201H347.835V176.13H356.782V200.49H361.463V204.539ZM382.067 181.616H376.581V176.13H382.067V181.616ZM386.203 204.539H372.575V200.49H377.06V188.321H372.575V184.25H381.566V200.49H386.203V204.539ZM413.186 204.539H408.679V192.022C408.679 190.44 408.382 189.344 407.787 188.735C407.192 188.125 406.328 187.82 405.196 187.82C403.527 187.82 402.163 188.495 401.104 189.845C400.059 191.194 399.536 193.059 399.536 195.44V204.539H395.03V184.25H399.536V189.344C399.986 187.588 400.821 186.224 402.04 185.251C403.259 184.265 404.761 183.771 406.546 183.771C408.621 183.771 410.247 184.446 411.422 185.796C412.598 187.145 413.186 189.221 413.186 192.022V204.539ZM437.969 204.321C437.969 205.715 437.73 206.955 437.251 208.044C436.772 209.132 436.097 210.054 435.227 210.809C434.37 211.563 433.354 212.137 432.179 212.528C431.018 212.935 429.719 213.138 428.282 213.138C424.756 213.138 421.744 212.071 419.248 209.938L421.381 206.455C423.457 208.24 425.757 209.132 428.282 209.132C429.835 209.132 431.083 208.748 432.026 207.979C432.984 207.224 433.463 206.034 433.463 204.408V202.232C432.534 203.03 431.642 203.625 430.786 204.017C429.929 204.394 428.935 204.583 427.803 204.583C426.497 204.583 425.285 204.307 424.168 203.755C423.05 203.204 422.085 202.456 421.272 201.513C420.474 200.555 419.843 199.445 419.379 198.182C418.929 196.92 418.704 195.577 418.704 194.155C418.704 192.733 418.929 191.39 419.379 190.128C419.843 188.851 420.474 187.748 421.272 186.819C422.085 185.876 423.05 185.135 424.168 184.598C425.285 184.047 426.497 183.771 427.803 183.771C428.935 183.771 429.944 183.967 430.829 184.359C431.714 184.736 432.592 185.31 433.463 186.079V184.25H437.969V204.321ZM433.463 189.649C432.926 189.054 432.23 188.604 431.373 188.299C430.532 187.98 429.712 187.82 428.913 187.82C427.215 187.82 425.837 188.415 424.777 189.605C423.732 190.795 423.21 192.312 423.21 194.155C423.21 195.069 423.348 195.918 423.624 196.702C423.914 197.471 424.306 198.139 424.799 198.705C425.307 199.271 425.909 199.721 426.606 200.055C427.317 200.374 428.086 200.534 428.913 200.534C429.712 200.534 430.532 200.374 431.373 200.055C432.23 199.721 432.926 199.256 433.463 198.661V189.649Z" fill="white"/>
</svg>
